<?xml version="1.0" standalone="no"?>
<!DOCTYPE svg PUBLIC "-//W3C//DTD SVG 20010904//EN"
 "http://www.w3.org/TR/2001/REC-SVG-20010904/DTD/svg10.dtd">
<svg version="1.0" xmlns="http://www.w3.org/2000/svg"
 width="500.000000pt" height="500.000000pt" viewBox="0 0 500.000000 500.000000"
 preserveAspectRatio="xMidYMid meet">
<metadata>
Created by potrace 1.16, written by Peter Selinger 2001-2019
</metadata>
<g transform="translate(0.000000,500.000000) scale(0.100000,-0.100000)"
fill="#000000" stroke="none">
<path d="M2160 4149 c0 -10 -27 -20 -87 -32 -335 -69 -690 -273 -908 -525
-202 -233 -342 -524 -407 -843 -21 -103 -23 -141 -23 -384 1 -255 2 -277 28
-398 75 -353 220 -641 438 -871 247 -261 547 -423 919 -497 98 -20 146 -23
325 -23 179 0 227 3 325 23 360 71 638 218 886 465 268 269 421 574 491 981
21 125 23 456 4 595 -72 516 -340 963 -736 1225 -193 128 -443 227 -665 264
-166 27 -590 42 -590 20z m561 -99 c409 -88 755 -363 954 -760 147 -292 208
-569 209 -940 0 -338 -63 -628 -193 -888 l-37 -73 -597 1339 c-328 736 -597
1342 -597 1346 0 12 163 -3 261 -24z m-514 -45 c-8 -42 -942 -2645 -949 -2645
-3 0 -29 47 -57 103 -89 182 -156 418 -181 642 -13 118 -13 428 1 535 58 468
267 880 576 1132 153 126 312 208 498 258 108 30 122 26 112 -25z m86 -173
c16 -18 268 -574 262 -580 -2 -2 -29 5 -61 14 -123 37 -320 19 -410 -37 -22
-13 -32 -16 -29 -7 2 7 41 141 85 298 45 157 88 295 96 308 17 27 35 28 57 4z
m178 -604 c63 -29 113 -77 131 -126 7 -18 17 -31 24 -28 11 4 474 -1017 474
-1048 0 -9 -5 -16 -11 -16 -10 0 -94 62 -109 80 -18 22 -253 153 -328 183
-100 40 -229 76 -276 78 -21 1 -10 6 33 15 181 40 271 126 271 260 -1 149 -88
217 -341 264 -244 45 -299 75 -299 166 0 62 20 104 70 146 54 47 94 58 210 55
78 -2 105 -8 151 -29z m-373 -366 c26 -11 85 -28 132 -37 47 -9 119 -22 160
-30 99 -19 177 -60 201 -105 27 -49 25 -134 -4 -185 -75 -133 -328 -162 -477
-54 -72 52 -98 119 -65 166 15 21 14 23 -10 29 -19 5 -32 1 -51 -17 -48 -45
-25 -137 48 -192 40 -30 137 -67 181 -68 18 -1 1 -6 -38 -10 -105 -14 -178
-35 -273 -79 -46 -22 -91 -40 -98 -40 -9 0 -14 12 -14 31 0 25 133 506 181
656 l10 32 35 -38 c19 -21 56 -48 82 -59z m367 -672 c133 -19 351 -88 361
-115 2 -6 -85 -202 -195 -435 -155 -331 -203 -425 -217 -425 -14 0 -75 107
-251 435 -128 239 -233 438 -233 442 0 20 165 80 267 98 69 11 187 11 268 0z
m-665 -775 l0 -605 -62 39 c-103 65 -215 161 -294 251 l-74 85 50 3 49 3 20
67 c11 37 50 172 86 300 71 255 107 340 173 414 24 26 46 48 48 48 2 0 4 -272
4 -605z m1329 449 c78 -86 105 -135 234 -419 95 -210 116 -250 136 -255 23 -5
22 -8 -38 -77 -78 -90 -182 -181 -286 -249 -73 -47 -177 -104 -190 -104 -3 0
-5 277 -5 616 l0 615 46 -33 c26 -18 72 -61 103 -94z m-1006 -361 c139 -260
254 -473 257 -473 3 0 79 159 170 353 267 571 280 599 293 594 9 -3 13 -152
15 -635 l2 -631 -52 -16 c-167 -50 -411 -63 -588 -31 -86 15 -258 65 -287 84
-8 5 -25 201 -52 608 -23 331 -41 607 -41 614 0 51 60 -48 283 -467z"/>
</g>
</svg>
